<svg xmlns="http://www.w3.org/2000/svg" width="634" height="824" viewBox="0 0 634 824" fill="none">
<path fill-rule="evenodd" clip-rule="evenodd" d="M356.002 0L137.418 126.213L217.78 172.84L356.002 93.2527L494.221 172.84L574.583 126.213L356.002 0ZM494.221 238.76L574.583 285.386V378.639L436.36 458.225V617.399L356.002 664.026L275.64 617.399V458.225L137.418 378.639V285.386L217.78 238.76L356.002 318.345L494.221 238.76ZM574.583 444.559V537.812L494.221 584.44V491.183L574.583 444.559ZM493.417 650.357L631.642 570.771V411.598L712 364.973V617.399L493.417 743.609V650.357ZM631.642 252.426L551.278 205.8L631.642 159.173L712 205.8V299.053L631.642 345.68V252.426ZM275.64 777.375V684.122L356.002 730.747L436.36 684.122V777.375L356.002 824L275.64 777.375ZM217.78 584.44L137.418 537.812V444.559L217.78 491.183V584.44ZM356.002 252.426L275.64 205.8L356.002 159.173L436.36 205.8L356.002 252.426ZM160.723 205.8L80.3611 252.426V345.68L0 299.053V205.8L80.3611 159.173L160.723 205.8ZM0 364.973L80.3611 411.598V570.771L218.582 650.357V743.609L0 617.399V364.973Z" fill="#333333" fill-opacity="0.5"/>
</svg>